<svg xmlns="http://www.w3.org/2000/svg" width="96" height="96" viewBox="0 0 96 96">
  <path d="M48 7 L83 27.5 V68.5 L48 89 L13 68.5 V27.5 Z" fill="#13233a" stroke="#13233a" stroke-width="6" stroke-linejoin="round"/>
  <path d="M48 7 L83 27.5 V68.5 L48 89 L13 68.5 V27.5 Z" fill="none" stroke="rgba(255,255,255,.09)" stroke-width="1.5" stroke-linejoin="round"/>
  <g transform="translate(24,24) scale(2)" fill="none" stroke="#17d4fa" stroke-width="1.75" stroke-linecap="round" stroke-linejoin="round"><path d="M12 6.8C10.4 5.5 8 5 5 5v13.2c3 0 5.4.5 7 1.8 1.6-1.3 4-1.8 7-1.8V5c-3 0-5.4.5-7 1.8z"/><path d="M12 6.8V20"/><path d="M15.5 5.2v4.6l1.5-1.1 1.5 1.1V5.4" stroke="#f22f89"/></g>
</svg>
